<svg width="48" height="48" viewBox="0 0 48 48" fill="none" xmlns="http://www.w3.org/2000/svg">
<path d="M42.5 27.5V7.5C42.5 6.96957 42.2893 6.46086 41.9142 6.08579C41.5391 5.71071 41.0304 5.5 40.5 5.5H7.5C6.96957 5.5 6.46086 5.71071 6.08579 6.08579C5.71071 6.46086 5.5 6.96957 5.5 7.5V40.5C5.5 41.0304 5.71071 41.5391 6.08579 41.9142C6.46086 42.2893 6.96957 42.5 7.5 42.5H27.5" stroke="#4C4D4F" stroke-linecap="round" stroke-linejoin="round"/>
<path d="M35 42.5C39.1421 42.5 42.5 39.1421 42.5 35C42.5 30.8579 39.1421 27.5 35 27.5C30.8579 27.5 27.5 30.8579 27.5 35C27.5 39.1421 30.8579 42.5 35 42.5Z" stroke="#4C4D4F" stroke-linecap="round" stroke-linejoin="round"/>
<path d="M29.6971 29.6971L18.774 18.774" stroke="#4C4D4F" stroke-linecap="round" stroke-linejoin="round"/>
<path d="M17.3598 19.3598C18.4644 19.3598 19.3598 18.4644 19.3598 17.3598C19.3598 16.2552 18.4644 15.3598 17.3598 15.3598C16.2552 15.3598 15.3598 16.2552 15.3598 17.3598C15.3598 18.4644 16.2552 19.3598 17.3598 19.3598Z" stroke="#4C4D4F" stroke-linecap="round" stroke-linejoin="round"/>
</svg>
