<svg width="48" height="48" viewBox="0 0 48 48" fill="none" xmlns="http://www.w3.org/2000/svg">
<path d="M17.5415 24.6346L16.3636 26.2657C14.6208 26.2297 12.9198 25.7252 11.4393 24.805C9.95873 23.8848 8.75327 22.583 7.94949 21.0361C7.14571 19.4893 6.77326 17.7546 6.87125 16.0141C6.96924 14.2737 7.53407 12.5917 8.50641 11.1449C9.47874 9.6981 10.8227 8.53978 12.3972 7.7916C13.9717 7.04343 15.7186 6.73301 17.4544 6.89293C19.1903 7.05286 20.851 7.67724 22.2623 8.7005C23.6736 9.72375 24.7833 11.1081 25.4749 12.7083H23.7205C23.0354 11.4411 22.0266 10.3781 20.7969 9.62774C19.5673 8.87735 18.1607 8.46631 16.7205 8.43651C15.2802 8.40671 13.8578 8.75921 12.5982 9.4581C11.3386 10.157 10.2867 11.1773 9.54973 12.4151C8.81279 13.6528 8.41711 15.0638 8.40301 16.5043C8.38892 17.9447 8.7569 19.3632 9.46948 20.6152C10.1821 21.8671 11.2138 22.9078 12.4595 23.6312C13.7052 24.3546 15.1204 24.7349 16.561 24.7333C16.8895 24.7205 17.217 24.6876 17.5415 24.6346ZM21.9583 14.2499V24.9229L23.5 27.0581V15.7916H38.9167V31.2083H26.497L27.6116 32.7499H40.4583V14.2499H21.9583ZM31.2762 40.4583H8.01551L19.6458 24.354L31.2762 40.4583ZM19.6458 26.9872L11.0295 38.9166H28.2638L19.6458 26.9872Z" fill="#4C4D4F"/>
</svg>
