<svg width="48" height="48" viewBox="0 0 48 48" fill="none" xmlns="http://www.w3.org/2000/svg">
<path d="M6 16.5V36C6 37.1935 6.47411 38.3381 7.31802 39.182C8.16193 40.0259 9.30653 40.5 10.5 40.5H37.5C38.6935 40.5 39.8381 40.0259 40.682 39.182C41.5259 38.3381 42 37.1935 42 36V16.5M6 16.5V12C6 10.8065 6.47411 9.66193 7.31802 8.81802C8.16193 7.97411 9.30653 7.5 10.5 7.5H37.5C38.6935 7.5 39.8381 7.97411 40.682 8.81802C41.5259 9.66193 42 10.8065 42 12V16.5M6 16.5H42M10.5 12H10.516V12.016H10.5V12ZM15 12H15.016V12.016H15V12ZM19.5 12H19.516V12.016H19.5V12Z" stroke="#4C4D4F" stroke-linecap="round" stroke-linejoin="round"/>
</svg>
