<svg width="48" height="48" viewBox="0 0 48 48" fill="none" xmlns="http://www.w3.org/2000/svg">
<path d="M16.5 13.5H40.5M16.5 24H40.5M16.5 34.5H40.5M7.5 13.5H7.514V13.516H7.5V13.5ZM8.25 13.5C8.25 13.6989 8.17098 13.8897 8.03033 14.0303C7.88968 14.171 7.69891 14.25 7.5 14.25C7.30109 14.25 7.11032 14.171 6.96967 14.0303C6.82902 13.8897 6.75 13.6989 6.75 13.5C6.75 13.3011 6.82902 13.1103 6.96967 12.9697C7.11032 12.829 7.30109 12.75 7.5 12.75C7.69891 12.75 7.88968 12.829 8.03033 12.9697C8.17098 13.1103 8.25 13.3011 8.25 13.5ZM7.5 24H7.514V24.016H7.5V24ZM8.25 24C8.25 24.1989 8.17098 24.3897 8.03033 24.5303C7.88968 24.671 7.69891 24.75 7.5 24.75C7.30109 24.75 7.11032 24.671 6.96967 24.5303C6.82902 24.3897 6.75 24.1989 6.75 24C6.75 23.8011 6.82902 23.6103 6.96967 23.4697C7.11032 23.329 7.30109 23.25 7.5 23.25C7.69891 23.25 7.88968 23.329 8.03033 23.4697C8.17098 23.6103 8.25 23.8011 8.25 24ZM7.5 34.5H7.514V34.516H7.5V34.5ZM8.25 34.5C8.25 34.6989 8.17098 34.8897 8.03033 35.0303C7.88968 35.171 7.69891 35.25 7.5 35.25C7.30109 35.25 7.11032 35.171 6.96967 35.0303C6.82902 34.8897 6.75 34.6989 6.75 34.5C6.75 34.3011 6.82902 34.1103 6.96967 33.9697C7.11032 33.829 7.30109 33.75 7.5 33.75C7.69891 33.75 7.88968 33.829 8.03033 33.9697C8.17098 34.1103 8.25 34.3011 8.25 34.5Z" stroke="#4C4D4F" stroke-linecap="round" stroke-linejoin="round"/>
</svg>
