<svg width="51" height="48" viewBox="0 0 51 48" fill="none" xmlns="http://www.w3.org/2000/svg">
<path d="M18.5245 11.6311C16.9312 11.6311 15.6339 12.9284 15.6339 14.5218C15.6339 16.1151 16.9312 17.4124 18.5245 17.4124C20.1178 17.4124 21.4151 16.1151 21.4151 14.5218C21.4151 12.9284 20.1178 11.6311 18.5245 11.6311ZM18.5245 16.2561C17.5683 16.2561 16.7901 15.478 16.7901 14.5218C16.7901 13.5655 17.5683 12.7874 18.5245 12.7874C19.4807 12.7874 20.2589 13.5655 20.2589 14.5218C20.2589 15.478 19.4807 16.2561 18.5245 16.2561Z" fill="#4C4D4F"/>
<path d="M30.8293 15.6906C30.8293 14.0973 29.532 12.8 27.9387 12.8C26.3453 12.8 25.048 14.0973 25.048 15.6906C25.048 17.2839 26.3453 18.5812 27.9387 18.5812C29.532 18.5812 30.8293 17.2851 30.8293 15.6906ZM26.2043 15.6906C26.2043 14.7344 26.9824 13.9562 27.9387 13.9562C28.8949 13.9562 29.673 14.7344 29.673 15.6906C29.673 16.6468 28.8949 17.425 27.9387 17.425C26.9824 17.425 26.2043 16.6468 26.2043 15.6906Z" fill="#4C4D4F"/>
<path d="M32.4399 20.7168C30.8466 20.7168 29.5493 22.0141 29.5493 23.6075C29.5493 25.2008 30.8466 26.4981 32.4399 26.4981C34.0333 26.4981 35.3306 25.2008 35.3306 23.6075C35.3306 22.0141 34.0333 20.7168 32.4399 20.7168ZM32.4399 25.3418C31.4837 25.3418 30.7056 24.5637 30.7056 23.6075C30.7056 22.6512 31.4837 21.8731 32.4399 21.8731C33.3962 21.8731 34.1743 22.6512 34.1743 23.6075C34.1743 24.5637 33.3962 25.3418 32.4399 25.3418Z" fill="#4C4D4F"/>
<path d="M29.5724 29.3356C27.66 29.3356 26.1037 30.892 26.1037 32.8044C26.1037 34.7168 27.66 36.2731 29.5724 36.2731C31.4849 36.2731 33.0412 34.7168 33.0412 32.8044C33.0412 30.892 31.486 29.3356 29.5724 29.3356ZM29.5724 35.1169C28.2971 35.1169 27.2599 34.0797 27.2599 32.8044C27.2599 31.529 28.2971 30.4919 29.5724 30.4919C30.8478 30.4919 31.8849 31.529 31.8849 32.8044C31.8849 34.0797 30.8478 35.1169 29.5724 35.1169Z" fill="#4C4D4F"/>
<path d="M25.6562 5C14.8176 5 6 13.9367 6 24.9199C6 30.3253 8.10091 35.4614 11.7639 39.0123C12.8612 40.076 13.9642 40.6379 14.9563 40.6379C15.8559 40.6379 16.6074 40.1731 17.0179 39.3626C17.6608 38.093 17.3347 36.2627 16.1877 34.6994C15.6292 33.9398 15.4778 33.0356 15.8015 32.3973C16.0305 31.9464 16.4733 31.6978 17.048 31.6978C17.7198 31.6978 19.5778 32.0724 22.3078 35.5389C26.5119 40.8784 30.4362 42 32.9892 42C35.1329 42 37.1968 41.1941 38.8017 39.7314C42.9387 35.9563 45.3125 30.5578 45.3125 24.9199C45.3125 13.9367 36.4949 5 25.6562 5ZM38.0223 38.8758C36.6314 40.1454 34.8438 40.8438 32.9892 40.8438C30.6929 40.8438 27.1339 39.7997 23.2154 34.8232C21.0405 32.0609 18.8506 30.5404 17.0468 30.5404C16.0282 30.5404 15.198 31.026 14.769 31.8747C14.2429 32.913 14.4291 34.2578 15.2546 35.3828C16.2687 36.7645 16.3531 38.115 15.9854 38.84C15.8374 39.1325 15.5391 39.4817 14.9563 39.4817C14.2811 39.4817 13.4335 39.0203 12.5698 38.1821C9.12881 34.8474 7.15625 30.0143 7.15625 24.9199C7.15625 14.5738 15.4558 6.15625 25.6562 6.15625C35.8567 6.15625 44.1562 14.5738 44.1562 24.9199C44.1562 30.234 41.9201 35.3203 38.0223 38.8758Z" fill="#4C4D4F"/>
</svg>
